<?xml version="1.0" standalone="no"?>
<svg xmlns:xlink="http://www.w3.org/1999/xlink" id="wave" style="transform:rotate(180deg); transition: 0.3s" viewBox="0 0 1440 270" version="1.1" xmlns="http://www.w3.org/2000/svg"><defs><linearGradient id="sw-gradient-0" x1="0" x2="0" y1="1" y2="0"><stop stop-color="rgba(15.998, 16.258, 15.564, 1)" offset="0%"/><stop stop-color="rgba(255, 255, 255, 1)" offset="100%"/></linearGradient></defs><path style="transform:translate(0, 0px); opacity:1" fill="url(#sw-gradient-0)" d="M0,189L240,162C480,135,960,81,1440,54C1920,27,2400,27,2880,31.5C3360,36,3840,45,4320,76.5C4800,108,5280,162,5760,180C6240,198,6720,180,7200,184.5C7680,189,8160,216,8640,202.5C9120,189,9600,135,10080,99C10560,63,11040,45,11520,49.5C12000,54,12480,81,12960,99C13440,117,13920,126,14400,144C14880,162,15360,189,15840,175.5C16320,162,16800,108,17280,99C17760,90,18240,126,18720,139.5C19200,153,19680,144,20160,153C20640,162,21120,189,21600,171C22080,153,22560,90,23040,85.5C23520,81,24000,135,24480,171C24960,207,25440,225,25920,220.5C26400,216,26880,189,27360,184.5C27840,180,28320,198,28800,198C29280,198,29760,180,30240,153C30720,126,31200,90,31680,94.5C32160,99,32640,144,33120,166.5C33600,189,34080,189,34320,189L34560,189L34560,270L34320,270C34080,270,33600,270,33120,270C32640,270,32160,270,31680,270C31200,270,30720,270,30240,270C29760,270,29280,270,28800,270C28320,270,27840,270,27360,270C26880,270,26400,270,25920,270C25440,270,24960,270,24480,270C24000,270,23520,270,23040,270C22560,270,22080,270,21600,270C21120,270,20640,270,20160,270C19680,270,19200,270,18720,270C18240,270,17760,270,17280,270C16800,270,16320,270,15840,270C15360,270,14880,270,14400,270C13920,270,13440,270,12960,270C12480,270,12000,270,11520,270C11040,270,10560,270,10080,270C9600,270,9120,270,8640,270C8160,270,7680,270,7200,270C6720,270,6240,270,5760,270C5280,270,4800,270,4320,270C3840,270,3360,270,2880,270C2400,270,1920,270,1440,270C960,270,480,270,240,270L0,270Z"/></svg>