<?xml version="1.0" standalone="no"?>
<svg xmlns:xlink="http://www.w3.org/1999/xlink" id="wave" style="transform:rotate(180deg); transition: 0.3s" viewBox="0 0 1440 490" version="1.1" xmlns="http://www.w3.org/2000/svg"><defs><linearGradient id="sw-gradient-0" x1="0" x2="0" y1="1" y2="0"><stop stop-color="rgba(185.133, 232.552, 105.773, 1)" offset="0%"/><stop stop-color="rgba(243.936, 236.534, 15.924, 1)" offset="100%"/></linearGradient></defs><path style="transform:translate(0, 0px); opacity:1" fill="url(#sw-gradient-0)" d="M0,147L80,163.3C160,180,320,212,480,196C640,180,800,114,960,147C1120,180,1280,310,1440,318.5C1600,327,1760,212,1920,155.2C2080,98,2240,98,2400,122.5C2560,147,2720,196,2880,228.7C3040,261,3200,278,3360,285.8C3520,294,3680,294,3840,310.3C4000,327,4160,359,4320,326.7C4480,294,4640,196,4800,187.8C4960,180,5120,261,5280,245C5440,229,5600,114,5760,130.7C5920,147,6080,294,6240,359.3C6400,425,6560,408,6720,400.2C6880,392,7040,392,7200,383.8C7360,376,7520,359,7680,310.3C7840,261,8000,180,8160,130.7C8320,82,8480,65,8640,49C8800,33,8960,16,9120,49C9280,82,9440,163,9600,179.7C9760,196,9920,147,10080,147C10240,147,10400,196,10560,204.2C10720,212,10880,180,11040,212.3C11200,245,11360,343,11440,392L11520,441L11520,490L11440,490C11360,490,11200,490,11040,490C10880,490,10720,490,10560,490C10400,490,10240,490,10080,490C9920,490,9760,490,9600,490C9440,490,9280,490,9120,490C8960,490,8800,490,8640,490C8480,490,8320,490,8160,490C8000,490,7840,490,7680,490C7520,490,7360,490,7200,490C7040,490,6880,490,6720,490C6560,490,6400,490,6240,490C6080,490,5920,490,5760,490C5600,490,5440,490,5280,490C5120,490,4960,490,4800,490C4640,490,4480,490,4320,490C4160,490,4000,490,3840,490C3680,490,3520,490,3360,490C3200,490,3040,490,2880,490C2720,490,2560,490,2400,490C2240,490,2080,490,1920,490C1760,490,1600,490,1440,490C1280,490,1120,490,960,490C800,490,640,490,480,490C320,490,160,490,80,490L0,490Z"/></svg>